# xmcd CD database file
#
# Track frame offsets:
#	150
#	12108
#	25872
#	37427
#	51620
#	63922
#	75890
#	90341
#	103440
#	117451
#	131719
#	145549
#	160125
#	183521
#
# Disc length: 2634 seconds
#
# Revision: 1
# Processed by: cddbd v1.5.2PL0 Copyright (c) Steve Scherf et al.
# Submitted via: CDex 1.70beta2
#
DISCID=bc0a480e
DTITLE=ella fitzgerald - giants of jazz
DYEAR=2003
DGENRE=Jazz
TTITLE0=a tisket, a tasket
TTITLE1='t'ain't what you do (it's the way that cha do it)
TTITLE2=it's only a paper moon
TTITLE3=dream a little dream of me
TTITLE4=can't help lovin' dat man
TTITLE5=baby, it's cold outside
TTITLE6=i'm making believed
TTITLE7=you won't be satisfied
TTITLE8=smooth sailing
TTITLE9=( i love you) for sentimental reasons
TTITLE10=into each life some rain must fall
TTITLE11=the frim fram sauce
TTITLE12=you'll have to swing it (Mr Paganini)
TTITLE13=my heart belongs to daddy
EXTD=YEAR: 2003
EXTT0=
EXTT1=
EXTT2=
EXTT3=
EXTT4=
EXTT5=
EXTT6=
EXTT7=
EXTT8=
EXTT9=
EXTT10=
EXTT11=
EXTT12=
EXTT13=
PLAYORDER=
